<svg width="126" height="45" viewBox="0 0 126 45" fill="none" xmlns="http://www.w3.org/2000/svg">
<path d="M11.368 40.192H17.36V43.328H2.68221e-07V40.192H5.096V7.264H2.68221e-07V4.128H30.296V13.312H26.712V8.496L25.592 7.264H11.368V22.608H21.504L22.344 21.768V19.08H25.928V29.328H22.344V26.64L21.504 25.744H11.368V40.192ZM49.7866 43.328H35.6186V40.528H39.7626V4.128H35.0026V1.328H45.6426V40.528H49.7866V43.328Z" fill="white"/>
<path d="M74.1552 0C79.2325 0 83.4779 1.792 86.8912 5.376C90.3045 8.96 92.0112 14.4427 92.0112 21.824C92.0112 29.1627 90.3045 34.7307 86.8912 38.528C83.5205 42.2827 78.9339 44.16 73.1312 44.16C67.3712 44.16 62.8485 42.2827 59.5632 38.528C56.2779 34.7733 54.6352 29.312 54.6352 22.144C54.6352 18.2187 55.2112 14.784 56.3632 11.84C57.5152 8.85333 59.0299 6.54933 60.9072 4.928C64.7045 1.64267 69.1205 0 74.1552 0ZM62.6352 21.824C62.6352 32.4053 66.3045 37.696 73.6432 37.696C77.5685 37.696 80.3205 36.0747 81.8992 32.832C83.3499 29.9733 84.0752 26.4747 84.0752 22.336C84.0752 18.624 83.4352 15.2107 82.1552 12.096C81.4299 10.3893 80.3205 9.04534 78.8272 8.064C77.3765 7.08267 75.4779 6.592 73.1312 6.592C70.7845 6.592 68.7579 7.36 67.0512 8.896C65.3872 10.432 64.2352 12.288 63.5952 14.464C62.9552 16.64 62.6352 19.0933 62.6352 21.824ZM109.374 37.568C114.494 37.568 117.054 35.52 117.054 31.424C117.054 29.2907 115.924 27.712 113.662 26.688C112.468 26.0907 110.91 25.536 108.99 25.024C107.113 24.512 105.534 24 104.254 23.488C103.017 22.9333 101.758 22.1867 100.478 21.248C97.9609 19.3707 96.7022 16.4907 96.7022 12.608C96.7022 8.68267 98.0462 5.61067 100.734 3.392C103.465 1.13067 107.006 0 111.358 0C115.753 0 119.828 0.874667 123.582 2.624V12.224L117.054 12.672V8.96C117.054 8.32 116.969 7.85067 116.798 7.552C116.329 6.74134 114.814 6.336 112.254 6.336C109.737 6.336 107.86 6.784 106.622 7.68C105.428 8.576 104.83 9.96267 104.83 11.84C104.83 13.2053 105.342 14.4 106.366 15.424C107.049 16.1067 108.052 16.6827 109.374 17.152C110.74 17.5787 112.169 18.0267 113.662 18.496C115.198 18.9653 116.542 19.4773 117.694 20.032C118.889 20.5867 120.126 21.3547 121.406 22.336C124.009 24.256 125.31 27.2213 125.31 31.232C125.31 35.2427 123.86 38.4 120.958 40.704C118.1 43.008 114.302 44.16 109.566 44.16C104.873 44.16 100.649 43.2853 96.8942 41.536V31.424L103.422 30.976V34.88C103.422 35.52 103.508 35.9893 103.678 36.288C103.849 36.5867 104.361 36.8853 105.214 37.184C106.11 37.44 107.497 37.568 109.374 37.568Z" fill="url(#paint0_linear_3_31)"/>
<defs>
<linearGradient id="paint0_linear_3_31" x1="63.208" y1="-25.672" x2="63.208" y2="43.328" gradientUnits="userSpaceOnUse">
<stop stop-color="#A2FFAF"/>
<stop offset="1" stop-color="#72B2AF"/>
</linearGradient>
</defs>
</svg>
